Coordinates
version=1
nRows=6
nColumns=46
inDegrees=yes

Units are S.I. units (second, meters, Newtons, ...)
Angles are in degrees.

endheader
time	pelvis_tilt	pelvis_list	pelvis_rotation	pelvis_tx	pelvis_ty	pelvis_tz	bb_angle	bb_tx	bb_ty	bb_tz	hip_flexion_r	hip_adduction_r	hip_rotation_r	knee_angle_r	knee_angle_r_beta	ankle_angle_r	subtalar_angle_r	mtp_angle_r	crank_angle_r	hip_flexion_l	hip_adduction_l	hip_rotation_l	knee_angle_l	knee_angle_l_beta	ankle_angle_l	subtalar_angle_l	mtp_angle_l	crank_angle_l	lumbar_extension	lumbar_bending	lumbar_rotation	arm_flex_r	arm_add_r	arm_rot_r	elbow_flex_r	pro_sup_r	wrist_flex_r	wrist_dev_r	arm_flex_l	arm_add_l	arm_rot_l	elbow_flex_l	pro_sup_l	wrist_flex_l	wrist_dev_l
      0.00000000	    -27.78558175	     -0.23242344	     -1.36398008	      0.13802231	      1.03660009	     -0.21322779	      0.00000000	      0.50000000	      0.00000000	      0.25000000	     82.65242423	     -1.73747722	      3.78440342	     69.70526451	      1.21658637	     14.25900447	     -5.00396464	      0.00000000	      0.00000000	     63.82426301	     -3.03572910	      5.03457374	     80.53131735	      1.40553664	      0.91211180	    -12.92233328	      0.00000000	      0.00000000	    -38.61464859	     -0.89102166	     -2.08115275	     75.45503443	     -3.04463167	     19.70776623	     45.74627584	     45.28094268	      0.00000000	      0.00000000	     74.78950818	    -11.03586466	     30.33217163	     26.31931436	     36.79956614	      0.00000000	      0.00000000
      0.00500000	    -27.83786766	     -0.24461792	     -1.28762534	      0.13800290	      1.03652239	     -0.21344660	      0.00000000	      0.50000000	      0.00000000	      0.25000000	     82.70057882	     -1.83166210	      3.76142587	     69.71480401	      1.21675287	     14.34605403	     -4.84124953	      0.00000000	      0.00000000	     63.89865569	     -2.94589897	      5.05862771	     80.51529991	      1.40525708	      0.60376343	    -13.35106331	      0.00000000	      0.00000000	    -38.58657572	     -0.76801561	     -2.22770478	     75.25818001	     -2.85902187	     19.42461378	     46.29542253	     45.04925002	      0.00000000	      0.00000000	     74.50644168	    -11.06153327	     28.87993616	     26.79854183	     37.35746706	      0.00000000	      0.00000000
      0.01000000	    -27.75592018	     -0.25167397	     -1.36232556	      0.13800777	      1.03664335	     -0.21320117	      0.00000000	      0.50000000	      0.00000000	      0.25000000	     82.60196109	     -1.72822541	      3.76808276	     69.68778085	      1.21628122	     14.29779667	     -4.99000829	      0.00000000	      0.00000000	     63.80508536	     -3.06846825	      5.02954143	     80.54340025	      1.40574753	      0.91149401	    -12.90795810	      0.00000000	      0.00000000	    -38.65509477	     -0.87761061	     -2.06370482	     75.45225554	     -3.15523702	     20.00746563	     45.86613513	     45.15429359	      0.00000000	      0.00000000	     74.86987685	    -11.25944011	     31.24029700	     26.18843373	     37.75955064	      0.00000000	      0.00000000
      0.01500000	    -27.70099231	     -0.22766129	     -1.24318537	      0.13793654	      1.03674207	     -0.21322505	      0.00000000	      0.50000000	      0.00000000	      0.25000000	     82.54557761	     -1.83584260	      3.79909693	     69.72813029	      1.21698545	     14.31372663	     -4.93754463	      0.00000000	      0.00000000	     63.73667309	     -2.92700985	      5.10714546	     80.49912264	      1.40497474	      0.84181035	    -12.99352663	      0.00000000	      0.00000000	    -38.74903820	     -0.86114722	     -2.16281121	     75.48379046	     -3.13283817	     19.78332582	     45.94483232	     45.04273003	      0.00000000	      0.00000000	     74.85343025	    -11.19778317	     30.59285782	     26.36127410	     37.95049794	      0.00000000	      0.00000000
      0.02000000	    -27.68408299	     -0.22384579	     -1.26329810	      0.13791341	      1.03689690	     -0.21305152	      0.00000000	      0.50000000	      0.00000000	      0.25000000	     82.53253083	     -1.82892307	      3.78547480	     69.74345269	      1.21725288	     14.36858726	     -4.98840093	      0.00000000	      0.00000000	     63.71105990	     -3.00081286	      5.06555729	     80.48168302	      1.40467036	      0.95882273	    -12.86840359	      0.00000000	      0.00000000	    -38.80971575	     -0.89440049	     -2.12572031	     75.26401977	     -3.22603328	     19.44546210	     46.59018618	     45.04912795	      0.00000000	      0.00000000	     74.62729532	    -11.28513598	     30.05148417	     27.11534379	     38.15967322	      0.00000000	      0.00000000
      0.02500000	    -27.89018013	     -0.32258270	     -1.19385113	      0.13773939	      1.03647934	     -0.21330035	      0.00000000	      0.50000000	      0.00000000	      0.25000000	     82.75554881	     -1.86466035	      3.69388254	     69.76529658	      1.21763413	     14.35526959	     -5.08575209	      0.00000000	      0.00000000	     64.00313522	     -2.94568691	      5.19898594	     80.51213472	      1.40520184	      0.57294970	    -13.26199057	      0.00000000	      0.00000000	    -38.47850838	     -0.72515141	     -2.33372799	     75.28629220	     -2.76775966	     19.45085816	     46.09830201	     44.59209592	      0.00000000	      0.00000000	     74.60027190	    -10.91516554	     28.18597601	     26.34110425	     38.46240300	      0.00000000	      0.00000000
